<?xml version="1.0" encoding="UTF-8" standalone="no"?>
<!DOCTYPE svg PUBLIC "-//W3C//DTD SVG 1.1//EN" "http://www.w3.org/Graphics/SVG/1.1/DTD/svg11.dtd">
<svg width="100%" height="100%" viewBox="0 0 1093 656" version="1.1" xmlns="http://www.w3.org/2000/svg" xmlns:xlink="http://www.w3.org/1999/xlink" xml:space="preserve" xmlns:serif="http://www.serif.com/" style="fill-rule:evenodd;clip-rule:evenodd;stroke-linecap:round;stroke-linejoin:round;stroke-miterlimit:1.5;">
    <g transform="matrix(1,0,0,1,-2450.95,-237.424)">
        <rect id="Artboard2" x="1970" y="0" width="1920" height="1920" style="fill:none;"/>
        <g id="Artboard21" serif:id="Artboard2">
            <g>
                <g transform="matrix(0.889737,0,0,0.889737,413.374,-187.811)">
                    <g transform="matrix(0.983176,0,0,0.983176,49.4688,14.882)">
                        <path d="M3003.1,576.687C3010.05,585.471 3015.53,591.723 3019.9,599.972C3024.81,609.235 3029.86,622.121 3032.12,632.995C3034.8,645.853 3032.17,658.009 3032.7,666.336C3033.06,671.934 3033.06,677.83 3035.33,682.958C3038.86,690.927 3050.2,707.585 3053.9,714.15C3055.38,716.755 3058.86,719.648 3057.57,722.345C3056.24,725.103 3049.1,727.111 3045.96,730.695C3042.8,734.298 3039.86,739.064 3038.61,743.964C3037.31,749.091 3038.88,757.687 3038.14,761.46C3037.73,763.578 3035.32,764.751 3034.2,766.602C3032.96,768.683 3030.85,771.235 3030.65,773.949C3030.41,777.016 3033.24,781.883 3032.82,785.006C3032.42,787.978 3028.69,789.74 3028.13,792.686C3027.24,797.391 3028.99,808.613 3027.46,813.236C3026.28,816.769 3022.59,819.867 3018.9,820.422C3012.28,821.421 2997.48,817.661 2987.7,819.23C2978.01,820.785 2967.55,823.931 2960.22,829.834C2952.89,835.737 2947.03,845.523 2943.73,854.648C2940.43,863.772 2940.42,877.645 2940.41,884.581" style="fill:none;stroke:rgb(39,115,176);stroke-width:11.43px;"/>
                    </g>
                    <g transform="matrix(0.975428,0,0,0.975428,71.6331,21.7216)">
                        <path d="M2915.54,884.015C2915.24,876.182 2914.64,860.516 2917.88,849.677C2921.12,838.838 2927.91,827.21 2934.99,818.982C2941.85,811.02 2950.72,804.409 2960.39,800.31C2970.17,796.165 2981.62,793.29 2993.7,794.109C2999.89,794.528 3003.24,790.805 3005.68,787.823C3008.11,784.842 3008.59,780.319 3008.3,776.221C3007.49,764.782 3013.19,760.942 3014.67,754.243C3015.99,748.258 3015.69,741.11 3017.17,736.027C3018.46,731.599 3021.93,727.395 3023.54,723.747C3024.92,720.65 3027.78,717.41 3026.87,714.144C3025.34,708.578 3017.09,697.774 3014.32,690.352C3011.86,683.753 3010.95,676.625 3010.28,669.614C3009.52,661.71 3011.14,651.432 3009.78,642.923C3008.43,634.516 3005.87,626.196 3002.09,618.563C2998.1,610.483 2989.9,599.787 2985.8,594.439" style="fill:none;stroke:rgb(39,115,176);stroke-width:11.52px;"/>
                    </g>
                    <g transform="matrix(0.937998,0,0,0.937998,179.227,54.7973)">
                        <path d="M3001.81,717.373C3000.09,721.977 2996.65,731.187 2992.49,737.177C2987.19,744.789 2978.82,755.736 2970.05,763.049C2961.05,770.56 2947.34,776.287 2938.47,782.245C2930.91,787.314 2922.89,792.067 2916.78,798.802C2910.18,806.073 2903.07,816.845 2898.89,825.869C2894.96,834.343 2893,843.699 2891.71,852.947C2890.36,862.603 2890.66,876.736 2890.8,883.802" style="fill:none;stroke:rgb(25,229,242);stroke-width:11.98px;"/>
                    </g>
                    <g transform="matrix(0.957911,0,0,0.957911,120.615,37.1937)">
                        <path d="M2865.68,883.682C2865.81,876.014 2866.07,860.677 2867.24,850.837C2868.3,841.979 2869.7,833.037 2872.71,824.641C2876.13,815.122 2881.03,803.009 2887.74,793.724C2894.73,784.056 2904.97,774.125 2914.66,766.634C2924.16,759.299 2936.8,755.115 2945.92,748.778C2954.38,742.895 2962.88,736.632 2969.34,728.609C2975.92,720.441 2982.3,710.326 2985.41,699.77C2988.81,688.212 2990.25,670.621 2989.75,659.263C2989.32,649.736 2985.78,639.624 2982.39,631.619C2979.24,624.199 2972.67,615.557 2969.39,611.236" style="fill:none;stroke:rgb(25,229,242);stroke-width:11.73px;"/>
                    </g>
                    <g transform="matrix(0.950753,0,0,0.950753,139.91,43.5234)">
                        <path d="M2952.03,628.996C2954.58,632.636 2959.69,639.914 2961.79,646.146C2964.05,652.828 2965.59,661.337 2965.57,669.086C2965.55,676.969 2965.07,685.952 2961.69,693.445C2957.84,701.966 2950.71,712.948 2942.47,720.217C2933.7,727.96 2918.31,733.838 2909.05,739.906C2901.31,744.975 2893.28,749.925 2886.91,756.625C2878.59,765.361 2866.25,779.019 2859.17,792.322C2851.97,805.857 2846.72,822.59 2843.7,837.833C2840.72,852.881 2840.92,873.479 2841.03,883.778" style="fill:none;stroke:rgb(39,115,176);stroke-width:11.82px;"/>
                    </g>
                    <g transform="matrix(0.930765,0,0,0.930765,195.384,61.1997)">
                        <path d="M2934.06,646.264C2935.55,648.613 2938.52,653.31 2939.53,657.284C2940.69,661.837 2941.64,668.201 2941.02,673.583C2940.39,678.964 2938.68,684.765 2935.79,689.573C2932.83,694.499 2928.25,699.52 2923.27,703.136C2916.66,707.944 2904.73,712.644 2896.09,718.419C2886.93,724.537 2876.7,731.685 2868.32,739.846C2859.84,748.115 2851.69,758.459 2845.2,768.033C2838.97,777.21 2833.5,787.001 2829.36,797.289C2824.93,808.299 2820.56,821.46 2818.63,834.09C2816.42,848.532 2816.2,872.14 2816.08,883.943" style="fill:none;stroke:rgb(25,229,242);stroke-width:12.08px;"/>
                    </g>
                    <path d="M3020.3,559.454C3028.9,568.069 3038.98,582.461 3044.18,593.916C3049.51,605.659 3054.78,614.903 3057.44,636.43C3058.81,647.555 3055.69,665.019 3058.02,674.091C3060.09,682.141 3072.73,700.018 3079.06,708.375C3083.97,714.869 3087.78,722.012 3088.66,726.883C3089.35,730.67 3087.4,735.24 3084.36,737.598C3080.94,740.249 3071.92,740.832 3068.14,742.788C3065.42,744.196 3062.24,746.318 3061.68,749.33C3061.07,752.605 3064.07,758.908 3064.48,762.437C3064.79,765.112 3065.62,768.255 3064.15,770.509C3062.56,772.938 3055.48,774.171 3054.95,777.011C3054.42,779.851 3061.44,784.13 3060.97,787.548C3060.49,790.966 3053.72,794.251 3052.09,797.518C3050.65,800.402 3051.11,803.923 3051.16,807.148C3051.23,811.378 3053.41,817.915 3052.49,822.9C3051.57,827.884 3049.54,833.575 3045.62,837.055C3041.47,840.728 3034.13,844.148 3027.63,844.94C3019.02,845.988 3002.31,842.951 2993.97,843.344C2988.36,843.608 2982.12,844.098 2977.59,847.295C2973.05,850.492 2968.82,856.648 2966.76,862.525C2964.59,868.687 2964.59,879.072 2964.59,884.265" style="fill:none;stroke:rgb(25,229,242);stroke-width:11.24px;"/>
                    <path d="M3083.41,661.228C3082.63,644.171 3081.08,610.056 3062.56,577.909C3040.16,539.007 3015.98,521.26 2989.14,505.536C2963.17,490.317 2934.08,483.273 2901.55,483.562C2857.56,483.952 2832.3,493.848 2797.99,516.259C2771.87,533.323 2749.12,563.815 2736.09,591.223C2723.08,618.603 2718.12,651.834 2719.82,680.703C2721.52,709.682 2732.29,745.586 2749.45,769.632C2768.51,796.344 2775.51,804.386 2784.46,829.92C2790.51,847.185 2791.73,871.888 2792.34,884.239" style="fill:none;stroke:rgb(30,76,145);stroke-width:11.24px;"/>
                    <path d="M3004.98,546.867C2989.34,534.017 2958.06,508.316 2899.14,508.316C2840.85,508.316 2807.83,538.239 2791.32,553.2" style="fill:none;stroke:rgb(25,229,242);stroke-width:11.24px;"/>
                    <g transform="matrix(6.12323e-17,-1,0.949571,5.81445e-17,2259.69,3575.59)">
                        <path d="M3003.9,543.863C2986.67,531.143 2952.21,505.702 2894.35,509.992C2820.38,515.475 2802.43,561.632 2762.52,571.337" style="fill:none;stroke:rgb(25,229,242);stroke-width:11.53px;"/>
                    </g>
                    <g transform="matrix(0.79514,0,0,0.79514,593.958,129.933)">
                        <path d="M3004.98,546.867C2989.34,534.017 2958.06,508.316 2899.14,508.316C2840.85,508.316 2807.83,538.239 2791.32,553.2" style="fill:none;stroke:rgb(25,229,242);stroke-width:14.13px;"/>
                    </g>
                    <g transform="matrix(4.69467e-17,-0.766697,0.728034,4.45792e-17,2399.26,2899.26)">
                        <path d="M3012.79,545.423C2996.51,533.067 2963.94,508.353 2905.02,508.353C2829.67,508.353 2796.87,556.186 2769.72,568.195" style="fill:none;stroke:rgb(25,229,242);stroke-width:15.03px;"/>
                    </g>
                    <g transform="matrix(0.610435,0,0,0.579734,1129.9,266.223)">
                        <path d="M3004.98,546.867C2989.34,534.017 2958.06,508.316 2899.14,508.316C2840.85,508.316 2807.83,538.239 2791.32,553.2" style="fill:none;stroke:rgb(25,229,242);stroke-width:18.88px;"/>
                    </g>
                    <g transform="matrix(3.43045e-17,-0.560234,0.505228,3.09363e-17,2541.77,2300.79)">
                        <path d="M3021.11,545.234C3002.89,531.434 2966.47,503.835 2907.55,503.835C2834.2,503.835 2792.19,548.389 2771.18,570.667" style="fill:none;stroke:rgb(25,229,242);stroke-width:21.07px;"/>
                    </g>
                    <g transform="matrix(0.434466,0,0,0.412616,1639.93,378.273)">
                        <path d="M3004.98,546.867C2989.34,534.017 2958.06,508.316 2899.14,508.316C2840.85,508.316 2807.83,538.239 2791.32,553.2" style="fill:none;stroke:rgb(25,229,242);stroke-width:26.53px;"/>
                    </g>
                    <g transform="matrix(2.36885e-17,-0.386863,0.270768,1.65798e-17,2687.35,1793.79)">
                        <path d="M3004.98,546.867C2990.23,532.501 2960.74,503.769 2901.81,503.769C2843.53,503.769 2806.46,551.126 2787.92,574.804" style="fill:none;stroke:rgb(39,115,176);stroke-width:33.66px;"/>
                    </g>
                    <g transform="matrix(0.246516,0,0,0.234118,2185.44,495.673)">
                        <path d="M3004.98,546.867C2989.34,534.017 2958.06,508.316 2899.14,508.316C2840.85,508.316 2807.83,538.239 2791.32,553.2" style="fill:none;stroke:rgb(25,229,242);stroke-width:46.75px;"/>
                    </g>
                    <g transform="matrix(1.05005e-17,-0.171486,0.154649,9.46952e-18,2777.09,1168.48)">
                        <path d="M3065.69,523.16C3042.56,507.156 2996.32,475.148 2904.51,475.148C2817.9,475.148 2756.78,536.886 2726.21,567.754" style="fill:none;stroke:rgb(39,115,176);stroke-width:68.83px;"/>
                    </g>
                </g>
                <g transform="matrix(1.14048,0,0,1.14048,-550.131,-426.177)">
                    <path d="M2655.86,1055.86L2655.86,1032.22L2686.09,1032.22C2692.44,1032.22 2697.35,1030.62 2700.8,1027.4C2704.24,1024.19 2705.97,1019.81 2705.97,1014.27C2705.97,1009.06 2704.26,1004.77 2700.85,1001.39C2697.43,998.006 2692.55,996.315 2686.19,996.315L2655.86,996.315L2655.86,971.566L2689.94,971.566C2699.41,971.566 2707.73,973.375 2714.89,976.992C2722.06,980.61 2727.66,985.58 2731.68,991.903C2735.7,998.225 2737.72,1005.51 2737.72,1013.76C2737.72,1022.21 2735.69,1029.58 2731.63,1035.87C2727.57,1042.16 2721.89,1047.06 2714.59,1050.58C2707.29,1054.1 2698.73,1055.86 2688.93,1055.86L2655.86,1055.86ZM2631.42,1114.79L2631.42,971.566L2663.37,971.566L2663.37,1114.79L2631.42,1114.79ZM2709.32,1114.79L2664.79,1053.12L2693.9,1045.2L2747.05,1114.79L2709.32,1114.79Z" style="fill:rgb(30,76,145);fill-rule:nonzero;"/>
                    <path d="M2799.28,1117.02C2788.6,1117.02 2779.12,1114.82 2770.83,1110.42C2762.55,1106.03 2756.04,1099.93 2751.31,1092.12C2746.57,1084.31 2744.21,1075.43 2744.21,1065.49C2744.21,1055.62 2746.52,1046.81 2751.16,1039.07C2755.79,1031.33 2762.11,1025.21 2770.12,1020.71C2778.14,1016.21 2787.11,1013.96 2797.05,1013.96C2806.79,1013.96 2815.39,1016.08 2822.87,1020.3C2830.34,1024.53 2836.21,1030.36 2840.47,1037.8C2844.73,1045.24 2846.86,1053.72 2846.86,1063.26C2846.86,1065.09 2846.76,1066.98 2846.55,1068.94C2846.35,1070.9 2845.98,1073.13 2845.44,1075.63L2760.44,1075.94L2760.44,1054.64L2832.25,1054.33L2818.86,1063.36C2818.73,1057.68 2817.83,1052.96 2816.17,1049.21C2814.52,1045.46 2812.12,1042.6 2808.97,1040.64C2805.83,1038.68 2801.92,1037.7 2797.26,1037.7C2792.39,1037.7 2788.16,1038.82 2784.58,1041.05C2780.99,1043.28 2778.24,1046.44 2776.31,1050.53C2774.38,1054.62 2773.42,1059.54 2773.42,1065.29C2773.42,1071.1 2774.45,1076.09 2776.51,1080.25C2778.58,1084.41 2781.53,1087.59 2785.39,1089.78C2789.24,1091.98 2793.84,1093.08 2799.18,1093.08C2804.05,1093.08 2808.45,1092.25 2812.37,1090.6C2816.29,1088.94 2819.74,1086.42 2822.72,1083.04L2839.76,1100.08C2834.89,1105.69 2829,1109.92 2822.11,1112.76C2815.21,1115.6 2807.6,1117.02 2799.28,1117.02Z" style="fill:rgb(30,76,145);fill-rule:nonzero;"/>
                    <path d="M2898.08,1116.82C2889.02,1116.82 2880.92,1114.58 2873.79,1110.12C2866.65,1105.66 2861.04,1099.57 2856.95,1091.86C2852.86,1084.15 2850.81,1075.4 2850.81,1065.59C2850.81,1055.72 2852.86,1046.91 2856.95,1039.17C2861.04,1031.43 2866.65,1025.32 2873.79,1020.86C2880.92,1016.4 2889.02,1014.17 2898.08,1014.17C2904.7,1014.17 2910.69,1015.45 2916.03,1018.02C2921.37,1020.59 2925.72,1024.14 2929.07,1028.67C2932.41,1033.2 2934.32,1038.38 2934.8,1044.19L2934.8,1086.79C2934.32,1092.61 2932.43,1097.78 2929.12,1102.31C2925.8,1106.84 2921.46,1110.39 2916.08,1112.96C2910.71,1115.53 2904.7,1116.82 2898.08,1116.82ZM2904.37,1088.82C2910.99,1088.82 2916.34,1086.64 2920.39,1082.28C2924.45,1077.92 2926.48,1072.32 2926.48,1065.49C2926.48,1060.89 2925.57,1056.85 2923.74,1053.37C2921.91,1049.89 2919.35,1047.15 2916.03,1045.15C2912.72,1043.16 2908.86,1042.16 2904.47,1042.16C2900.14,1042.16 2896.32,1043.16 2893.01,1045.15C2889.69,1047.15 2887.07,1049.9 2885.15,1053.42C2883.22,1056.94 2882.26,1060.96 2882.26,1065.49C2882.26,1070.02 2883.2,1074.05 2885.1,1077.56C2886.99,1081.08 2889.61,1083.83 2892.96,1085.83C2896.3,1087.82 2900.11,1088.82 2904.37,1088.82ZM2925.16,1114.79L2925.16,1088.31L2929.83,1064.27L2925.16,1040.44L2925.16,1016.2L2955.69,1016.2L2955.69,1114.79L2925.16,1114.79Z" style="fill:rgb(30,76,145);fill-rule:nonzero;"/>
                    <path d="M3014.72,1116.82C3005.39,1116.82 2997.11,1114.59 2989.88,1110.12C2982.65,1105.66 2976.97,1099.58 2972.84,1091.87C2968.71,1084.15 2966.65,1075.39 2966.65,1065.57C2966.65,1055.68 2968.71,1046.87 2972.83,1039.15C2976.96,1031.42 2982.63,1025.32 2989.86,1020.86C2997.08,1016.4 3005.37,1014.17 3014.72,1014.17C3021.42,1014.17 3027.52,1015.45 3033.03,1018.02C3038.54,1020.59 3043.07,1024.14 3046.62,1028.67C3050.17,1033.2 3052.19,1038.38 3052.66,1044.19L3052.66,1085.78C3052.19,1091.59 3050.19,1096.85 3046.68,1101.55C3043.16,1106.25 3038.63,1109.97 3033.08,1112.71C3027.54,1115.45 3021.42,1116.82 3014.72,1116.82ZM3020.2,1088.82C3024.66,1088.82 3028.53,1087.83 3031.8,1085.86C3035.08,1083.89 3037.65,1081.15 3039.51,1077.64C3041.38,1074.14 3042.31,1070.09 3042.31,1065.49C3042.31,1060.87 3041.39,1056.82 3039.55,1053.36C3037.72,1049.9 3035.14,1047.16 3031.85,1045.16C3028.55,1043.16 3024.72,1042.16 3020.35,1042.16C3015.99,1042.16 3012.16,1043.17 3008.85,1045.17C3005.54,1047.18 3002.92,1049.94 3000.99,1053.44C2999.06,1056.95 2998.09,1060.97 2998.09,1065.49C2998.09,1070.02 2999.03,1074.04 3000.92,1077.56C3002.81,1081.07 3005.44,1083.83 3008.81,1085.82C3012.18,1087.82 3015.97,1088.82 3020.2,1088.82ZM3071.53,1114.79L3040.99,1114.79L3040.99,1088.31L3045.66,1064.27L3040.49,1040.44L3040.49,967.509L3071.53,967.509L3071.53,1114.79Z" style="fill:rgb(30,76,145);fill-rule:nonzero;"/>
                    <path d="M3118.89,1115.29L3078.42,1016.2L3111.79,1016.2L3137.56,1094.81L3125.28,1094.81L3151.66,1016.2L3185.03,1016.2L3142.83,1115.29L3118.89,1115.29ZM3093.54,1156.37L3123.15,1092.47L3142.83,1115.29L3125.39,1156.37L3093.54,1156.37Z" style="fill:rgb(30,76,145);fill-rule:nonzero;"/>
                    <path d="M3194.66,1114.79L3194.66,971.566L3226.61,971.566L3226.61,1114.79L3194.66,1114.79ZM3219.11,1058.69L3219.11,1031.21L3290.72,1031.21L3290.72,1058.69L3219.11,1058.69ZM3219.11,999.054L3219.11,971.566L3293.96,971.566L3293.96,999.054L3219.11,999.054Z" style="fill:rgb(25,229,242);fill-rule:nonzero;"/>
                    <path d="M3306.74,1114.79L3306.74,1016.2L3337.78,1016.2L3337.78,1114.79L3306.74,1114.79ZM3322.26,1002.6C3317.46,1002.6 3313.47,1000.96 3310.29,997.684C3307.12,994.405 3305.53,990.364 3305.53,985.563C3305.53,980.762 3307.12,976.722 3310.29,973.442C3313.47,970.163 3317.46,968.523 3322.26,968.523C3327.2,968.523 3331.22,970.163 3334.33,973.442C3337.44,976.722 3339,980.762 3339,985.563C3339,990.364 3337.44,994.405 3334.33,997.684C3331.22,1000.96 3327.2,1002.6 3322.26,1002.6Z" style="fill:rgb(25,229,242);fill-rule:nonzero;"/>
                    <path d="M3354.82,1114.79L3354.82,1016.2L3385.86,1016.2L3385.86,1114.79L3354.82,1114.79ZM3385.86,1060.72L3372.78,1050.58C3375.35,1039.02 3379.71,1030.06 3385.86,1023.7C3392.01,1017.35 3400.43,1014.17 3411.12,1014.17C3415.85,1014.17 3420.03,1014.88 3423.64,1016.3C3427.26,1017.72 3430.42,1019.92 3433.13,1022.89L3414.67,1046.22C3413.31,1044.73 3411.64,1043.6 3409.64,1042.82C3407.63,1042.04 3405.32,1041.65 3402.7,1041.65C3397.56,1041.65 3393.47,1043.24 3390.43,1046.4C3387.38,1049.56 3385.86,1054.33 3385.86,1060.72Z" style="fill:rgb(25,229,242);fill-rule:nonzero;"/>
                    <path d="M3470.05,1117.32C3464.23,1117.32 3458.52,1116.56 3452.91,1115.04C3447.29,1113.52 3442.1,1111.39 3437.34,1108.65C3432.57,1105.91 3428.49,1102.68 3425.11,1098.96L3442.66,1081.11C3445.97,1084.69 3449.86,1087.45 3454.33,1089.38C3458.79,1091.31 3463.66,1092.27 3468.93,1092.27C3472.58,1092.27 3475.37,1091.75 3477.3,1090.7C3479.23,1089.65 3480.19,1088.14 3480.19,1086.18C3480.19,1083.75 3479.03,1081.89 3476.69,1080.6C3474.36,1079.32 3471.37,1078.19 3467.72,1077.21C3464.06,1076.23 3460.21,1075.11 3456.15,1073.86C3452.1,1072.61 3448.22,1070.9 3444.54,1068.74C3440.85,1066.57 3437.86,1063.58 3435.56,1059.76C3433.26,1055.94 3432.11,1051.02 3432.11,1045C3432.11,1038.71 3433.74,1033.22 3436.98,1028.52C3440.23,1023.82 3444.83,1020.13 3450.78,1017.46C3456.73,1014.79 3463.72,1013.46 3471.77,1013.46C3480.09,1013.46 3487.82,1014.89 3494.95,1017.77C3502.08,1020.64 3507.88,1024.95 3512.35,1030.7L3494.7,1048.55C3491.59,1044.9 3488.1,1042.31 3484.25,1040.79C3480.39,1039.27 3476.61,1038.51 3472.89,1038.51C3469.37,1038.51 3466.75,1039.03 3465.03,1040.08C3463.3,1041.13 3462.44,1042.57 3462.44,1044.39C3462.44,1046.49 3463.59,1048.15 3465.89,1049.36C3468.19,1050.58 3471.16,1051.66 3474.82,1052.61C3478.47,1053.56 3482.3,1054.69 3486.33,1056.01C3490.35,1057.33 3494.19,1059.15 3497.84,1061.49C3501.49,1063.82 3504.47,1066.91 3506.77,1070.77C3509.07,1074.62 3510.22,1079.62 3510.22,1085.78C3510.22,1095.45 3506.6,1103.12 3499.36,1108.8C3492.13,1114.48 3482.36,1117.32 3470.05,1117.32Z" style="fill:rgb(25,229,242);fill-rule:nonzero;"/>
                    <path d="M3536.18,1114.79L3536.18,975.42L3567.22,975.42L3567.22,1114.79L3536.18,1114.79ZM3513.87,1042.57L3513.87,1016.2L3589.53,1016.2L3589.53,1042.57L3513.87,1042.57Z" style="fill:rgb(25,229,242);fill-rule:nonzero;"/>
                </g>
            </g>
        </g>
    </g>
</svg>
